<?xml version="1.0" standalone="no"?>
<!DOCTYPE svg PUBLIC "-//W3C//DTD SVG 1.1//EN" "http://www.w3.org/Graphics/SVG/1.1/DTD/svg11.dtd" >
<!--
2013-9-30: Created.
-->
<svg>
<metadata>
Created by iconfont
</metadata>
<defs>

<font id="iconfont" horiz-adv-x="1024" >
  <font-face
    font-family="iconfont"
    font-weight="500"
    font-stretch="normal"
    units-per-em="1024"
    ascent="896"
    descent="-128"
  />
    <missing-glyph />
    
    <glyph glyph-name="erji" unicode="&#58881;" d="M863.215636 430.004777l-47.664486 0c-18.735458 159.054529-146.074758 282.995329-298.434921 282.995329-152.142189 0-279.709697-124.059504-298.456411-282.995329l-47.671649 0c-55.776566 0-101.179453-48.131207-101.179453-107.290585l0-117.445876c0-59.160401 45.401863-107.291608 101.179453-107.291608l73.250236 0c7.426437 0 14.52438 2.949168 19.765969 8.190543 5.241589 5.241374 8.189855 12.366655 8.189855 19.765159l-0.02763 79.334883 0.00614 47.192835c0.008187 0.276293 0.02149 0.549515 0.02149 0.827855 0 1.610684 0 136.747477 0.02763 140.65139C274.406707 539.042145 384.267222 657.088702 517.116229 657.088702c133.395475 0 243.25599-118.565373 244.89437-264.267802 0.023537-3.662413 0.026607-114.296139 0.026607-135.901203l0-130.986263c0-15.451924 12.504291-27.955702 27.955824-27.955702l73.222605 0c55.804197 0 101.207083 48.130184 101.207083 107.291608L964.422719 322.714192C964.423742 381.87357 919.020856 430.004777 863.215636 430.004777zM170.988169 153.890158c-24.953321 0-45.265758 23.041786-45.265758 51.379181L125.722411 322.714192c0 28.337395 20.312437 51.378158 45.265758 51.378158l45.293388 0-0.02763-51.378158 0.02763-168.824033L170.988169 153.890158zM908.510047 205.269339c0-28.337395-20.312437-51.379181-45.294411-51.379181l-45.264734 0L817.950901 374.092349l45.264734 0c24.981974 0 45.294411-23.040762 45.294411-51.378158L908.510047 205.269339z"  horiz-adv-x="1024" />

    
    <glyph glyph-name="favor" unicode="&#58905;" d="M970.123952 470.141916l-241.336534-196.024535 80.022545-300.4427c2.90619-10.918677-3.591805-22.134113-14.510482-25.040303-1.77032-0.470721-3.540639-0.695848-5.28026-0.695848-9.046027 0-17.324574 6.04774-19.760043 15.20633l-83.430154 313.234027c-2.077312 7.797593 0.613984 16.07614 6.866385 21.161972l210.422454 170.912601-270.684956 14.592346c-8.05342 0.429789-15.093766 5.54632-17.999956 13.06762l-97.531314 252.930593-97.531314-252.930593c-2.90619-7.521301-9.946536-12.637832-17.999956-13.06762l-270.684956-14.592346 210.422454-170.912601c6.252401-5.085832 8.943696-13.364379 6.866385-21.161972l-69.769017-261.945921 227.573065 147.284461c6.764054 4.379751 15.47239 4.379751 22.246677 0l112.543216-72.838935c9.496282-6.15007 12.208043-18.818601 6.068206-28.304649-6.15007-9.486048-18.818601-12.208043-28.304649-6.057973l-101.43011 65.645093-261.004479-168.93762c-7.111978-4.594645-16.311501-4.349051-23.157419 0.63445-6.845918 4.973268-9.92607 13.640672-7.746428 21.816888l80.022545 300.4427-241.336534 196.024535c-6.569626 5.331425-9.179057 14.162558-6.559393 22.215978 2.609431 8.043187 9.915837 13.650905 18.358113 14.111392l310.460868 16.731056 111.867834 290.097074c3.039219 7.889691 10.632151 13.098319 19.094894 13.098319 8.462742 0 16.055674-5.208629 19.094894-13.098319l111.867834-290.097074 310.460868-16.731056c8.452509-0.460488 15.748682-6.068206 18.358113-14.111392C979.303009 484.304474 976.693578 475.473341 970.123952 470.141916z"  horiz-adv-x="1024" />

    
    <glyph glyph-name="record" unicode="&#58943;" d="M685.695994 832.043363C643.320884 873.292835 587.008344 896 527.134699 896s-116.186186-22.707165-158.561295-63.956637c-42.528606-41.392736-65.952084-96.477308-65.952084-155.092287l0-255.785617c0-58.614979 23.423479-113.699552 65.952084-155.092287 42.37511-41.249473 98.68765-63.956637 158.561295-63.956637s116.186186 22.707165 158.561295 63.956637c42.528606 41.392736 65.952084 96.477308 65.952084 155.092287L751.648079 676.951075C751.648079 735.566054 728.2246 790.650627 685.695994 832.043363zM710.715831 421.165458c0-98.216929-82.355683-178.116677-183.581132-178.116677s-183.581132 79.899748-183.581132 178.116677L343.553567 676.951075c0 98.216929 82.355683 178.116677 183.581132 178.116677s183.581132-79.899748 183.581132-178.116677L710.715831 421.165458 710.715831 421.165458zM853.671707 528.653541l0-102.023628c0-173.184341-135.51644-315.301106-306.070884-325.902558l0-143.416364c0-11.2973-9.15859-20.466124-20.466124-20.466124s-20.466124 9.168824-20.466124 20.466124L506.668575 100.727355c-170.554444 10.601452-306.070884 152.718217-306.070884 325.902558l0 102.023628c0 11.2973 9.15859 20.466124 20.466124 20.466124 11.2973 0 20.466124-9.168824 20.466124-20.466124l0-102.023628c0-157.486824 128.117936-285.60476 285.60476-285.60476s285.60476 128.117936 285.60476 285.60476l0 102.023628c0 11.2973 9.168824 20.466124 20.466124 20.466124C844.513116 549.119665 853.671707 539.950841 853.671707 528.653541zM791.413757-103.903186c0-11.2973-9.168824-20.466124-20.466124-20.466124l-487.62587 0c-11.2973 0-20.466124 9.168824-20.466124 20.466124 0 11.307533 9.168824 20.466124 20.466124 20.466124l487.62587 0C782.244934-83.437062 791.413757-92.595652 791.413757-103.903186z"  horiz-adv-x="1024" />

    
    <glyph glyph-name="huanfu" unicode="&#58921;" d="M1004.24704 368.62848 866.85696 247.4176c-15.28832-13.50656-36.096-15.86176-53.84192-8.84736l0-3.56352 0-314.10176c0-43.34592-35.15392-78.53056-78.53056-78.53056L289.50528-157.6256c-43.3664 0-78.52032 35.1744-78.52032 78.53056L210.98496 235.00672l0 4.92544c-17.98144-8.1408-39.65952-5.7344-55.33696 8.32512L19.57888 370.0416c-21.46304 19.21024-23.5008 52.45952-4.57728 74.22976L272.26112 744.40576c4.94592 5.70368 10.93632 9.63584 17.32608 12.41088 0 0.28672-0.03072 0.54272-0.03072 0.80896l53.7088 0c7.19872-87.32672 79.54432-156.19072 168.72448-156.19072 89.18016 0 161.52576 68.864 168.72448 156.19072l53.7088 0-0.0512-1.75104c5.43744-2.72384 10.36288-9.73824 14.71488-14.66368l259.75808-298.71104C1027.98336 420.85248 1025.92512 387.78752 1004.24704 368.62848L1004.24704 368.62848zM963.80928 431.84 726.3232 701.00864C701.2864 613.344 620.77952 549.10848 525.08672 549.10848l-26.17344 0c-97.45408 0-179.11808 66.67264-202.46528 156.78464L59.60704 433.60128c-9.45152-10.89536-8.42752-27.51488 2.304-37.12l114.2784-102.92224c10.15808-9.1136 25.15968-8.32512 34.78528 0.91136l0 45.2608c0 14.46912 11.69408 26.17344 26.17344 26.17344 10.41408 0 19.24096-6.20544 23.4496-15.02208l2.72384-11.15136 0 0 0-47.09376 0-57.62048 0-52.34688 0-235.58144c0-28.89728 23.4496-52.35712 52.34688-52.35712l392.63232 0c28.89728 0 52.35712 23.45984 52.35712 52.35712L760.65792 182.68032l0 52.34688 0 53.61664 0 51.0976 0 0 1.61792 8.1408c3.45088 10.3936 12.9536 18.03264 24.55552 18.03264 14.46912 0 26.18368-11.70432 26.18368-26.17344l0-47.90272c9.728-7.50592 23.48032-7.79264 33.05472 0.63488l115.43552 102.42048C972.3392 404.46848 973.3632 421.00608 963.80928 431.84L963.80928 431.84zM963.80928 431.84"  horiz-adv-x="1024" />

    
    <glyph glyph-name="bofang" unicode="&#58927;" d="M512-212C229.285566-212 0.106644 17.232243 0.106644 300 0.106644 582.767757 229.285566 812 512 812 794.714434 812 1023.893356 582.767757 1023.893356 300 1023.893356 17.232243 794.714434-212 512-212ZM512 779.996001C246.956551 779.996001 32.099979 565.086107 32.099979 300 32.099979 34.903228 246.956551-179.996001 512-179.996001 777.043449-179.996001 991.900021 34.903228 991.900021 300 991.900021 565.086107 777.043449 779.996001 512 779.996001ZM639.973339 97.322225 618.644449 97.322225C595.08669 97.322225 575.986669 116.422245 575.986669 139.980004L575.986669 459.913351C575.986669 483.47111 595.08669 502.571131 618.644449 502.571131L639.973339 502.571131C663.531098 502.571131 682.631119 483.47111 682.631119 459.913351L682.631119 139.980004C682.631119 116.422245 663.531098 97.322225 639.973339 97.322225ZM405.355551 97.322225 384.026661 97.322225C360.468902 97.322225 341.368881 116.422245 341.368881 139.980004L341.368881 459.913351C341.368881 483.47111 360.468902 502.571131 384.026661 502.571131L405.355551 502.571131C428.91331 502.571131 448.013331 483.47111 448.013331 459.913351L448.013331 139.980004C448.013331 116.422245 428.91331 97.322225 405.355551 97.322225Z"  horiz-adv-x="1024" />

    
    <glyph glyph-name="paixingbang" unicode="&#59325;" d="M1002.624-85.269333 21.354667-85.269333C9.557333-85.269333 0-94.826667 0-106.624 0-118.442667 9.557333-128 21.354667-128l981.269333 0C1014.464-128 1024-118.442667 1024-106.624 1024-94.826667 1014.464-85.269333 1002.624-85.269333zM757.290667-29.866667l245.333333 0c11.84 0 21.376 9.557333 21.354667 21.376L1023.978667 334.933333c0 11.818667-9.514667 21.376-21.376 21.376L757.290667 356.309333c-11.84 0-21.354667-9.557333-21.354667-21.376l0-343.445333C735.936-20.309333 745.450667-29.866667 757.290667-29.866667zM778.666667 313.578667l202.581333 0 0-300.714667L778.666667 12.864 778.666667 313.578667zM389.333333-29.866667l245.312 0c11.861333 0 21.376 9.557333 21.376 21.376L656.021333 874.645333C656.021333 886.442667 646.506667 896 634.645333 896L389.333333 896c-11.797333 0-21.354667-9.557333-21.354667-21.354667l0-883.136C367.978667-20.309333 377.536-29.866667 389.333333-29.866667zM410.709333 853.269333l202.581333 0 0-840.405333-202.581333 0L410.709333 853.269333zM21.354667-29.866667l245.333333 0c11.797333 0 21.376 9.557333 21.333333 21.376L288.021333 531.2c0 11.776-9.578667 21.354667-21.354667 21.354667L21.354667 552.554667C9.557333 552.554667 0 542.997333 0 531.2l0-539.690667C0-20.309333 9.557333-29.866667 21.354667-29.866667zM42.730667 509.824l202.581333 0 0-496.938667L42.730667 12.885333 42.730667 509.824z"  horiz-adv-x="1024" />

    
    <glyph glyph-name="sousuo" unicode="&#58910;" d="M688.565345 242.099153c0 0-11.672854-15.440667-27.297716-30.575366l179.917696-176.300308 29.860075 27.91784L688.565345 242.099153 688.565345 242.099153zM752.457514 433.213865c0-175.017082-134.816498-306.400389-301.919331-306.400389C276.296767 129.344113 149.950174 266.551054 149.950174 432.978505c0 160.758334 135.995347 296.318776 300.588009 296.318776C617.641015 729.29728 752.457514 591.974705 752.457514 433.213865L752.457514 433.213865zM449.439152 689.132512c-143.231145 0-259.32421-116.181069-259.32421-261.075087 0-144.898111 116.093065-261.882476 259.32421-261.882476 143.250588 0 262.8495 116.984365 262.8495 261.882476C712.288652 572.9514429999999 592.68974 689.132512 449.439152 689.132512L449.439152 689.132512zM449.439152 689.132512"  horiz-adv-x="1024" />

    
    <glyph glyph-name="xitongcaidan" unicode="&#59030;" d="M929.70745 596.56321L93.792153 596.56321c-16.575514 0-30.013571 13.100366-30.013571 29.67588s13.438057 29.67588 30.013571 29.67588l835.916321 0c16.575514 0 30.013571-13.100366 30.013571-29.67588S946.283987 596.56321 929.70745 596.56321zM775.639492 349.946416L93.792153 349.946416c-16.575514 0-30.013571 13.612019-30.013571 30.187533s13.438057 30.187533 30.013571 30.187533L775.639492 410.321482c16.575514 0 30.013571-13.612019 30.013571-30.187533S792.215006 349.946416 775.639492 349.946416zM929.70745 104.35292900000002L93.792153 104.35292900000002c-16.575514 0-30.013571 13.100366-30.013571 29.67588s13.438057 29.67588 30.013571 29.67588l835.916321 0c16.575514 0 30.013571-13.100366 30.013571-29.67588S946.283987 104.35292900000002 929.70745 104.35292900000002z"  horiz-adv-x="1024" />

    
    <glyph glyph-name="shipinbofangyingpian" unicode="&#59279;" d="M832 768L128 768C57.344 768 0 710.656 0 640l0-576c0-70.656 57.344-128 128-128l704 0c70.656 0 128 57.344 128 128L960 640C960 710.656 902.656 768 832 768zM896 64c0-35.392-28.608-64-64-64L128 0c-35.392 0-64 28.608-64 64L64 640c0 35.392 28.608 64 64 64l704 0c35.392 0 64-28.608 64-64L896 64zM368.448 571.456C358.592 577.344 346.24 577.472 336.192 571.904 326.208 566.2080000000001 320 555.52 320 544l0-384c0-11.584 6.208-22.144 16.192-27.904C341.12 129.34400000000005 346.56 128 352 128c5.696 0 11.392 1.472 16.448 4.544l320.064 192C698.048 330.304 704 340.736 704 352s-5.952 21.632-15.488 27.456L368.448 571.456zM384 216.51199999999994L384 487.488 609.792 352 384 216.51199999999994z"  horiz-adv-x="1024" />

    
    <glyph glyph-name="huiyuanzhongxin" unicode="&#58900;" d="M512.009721 765.181559c61.169151 0 116.568902-24.809035 156.680459-64.912405 40.102347-40.10644 64.908312-95.507214 64.908312-156.680459 0-61.169151-24.804942-116.593462-64.908312-156.680459-10.050913-10.045797-21.050432-19.12457-32.867572-27.095102 46.811142-17.70729 88.838328-45.12985 123.622552-79.812767 63.425541-63.283302 102.665241-150.630672 102.665241-247.021 0-16.650215-13.510712-30.16195-30.181393-30.16195-16.646122 0-30.156834 13.510712-30.156834 30.16195 0 79.860862-32.397874 152.120606-84.767616 204.354248C664.65119 289.544745 592.303442 321.891454 512.369925 321.995831l-0.361227 0-0.020466 0-0.344854 0c-79.966263-0.105401-152.312988-32.451086-204.649983-84.661192-52.369741-52.233642-84.766592-124.493385-84.766592-204.354248 0-16.650215-13.511735-30.16195-30.178323-30.16195-16.651238 0-30.160927 13.510712-30.160927 30.16195 0 96.389304 39.239699 183.737698 102.681614 247.021 34.751478 34.68394 76.778664 62.105476 123.589806 79.812767-11.800767 7.969509-22.800285 17.048281-32.847106 27.095102-40.090067 40.08802-64.895009 95.511307-64.895009 156.680459 0 61.173245 24.804942 116.574019 64.895009 156.680459C395.41626 740.372523 450.820104 765.181559 512.009721 765.181559L512.009721 765.181559 512.009721 765.181559zM626.018312 657.597285c-29.172413 29.173436-69.489654 47.246047-114.00859 47.246047-44.523029 0-84.856643-18.072611-114.029056-47.246047-29.172413-29.172413-47.241954-69.485561-47.241954-114.00859s18.068518-84.835154 47.241954-114.03008c29.086455-29.083385 69.278853-47.119157 113.663736-47.223534l0.344854 0 0.020466 0 0.344854 0c44.38079 0.105401 84.572164 18.141172 113.659643 47.223534 29.17753 29.193903 47.245024 69.50705 47.245024 114.03008S655.191748 628.424872 626.018312 657.597285L626.018312 657.597285zM626.018312 657.597285"  horiz-adv-x="1024" />

    
    <glyph glyph-name="huoyan" unicode="&#58906;" d="M846.387813 396.124132c-44.570101 102.138238-90.64651 157.541059-107.147322 201.799052-17.536398 47.044456-0.243547 87.113033-0.243547 87.113033-36.583197 7.299243-63.780629-27.53717-84.311221-62.877049-12.703323-21.869077-29.296233-154.419975-55.270814-186.961112-4.428869-5.541203-13.210883-4.185322-15.681144 2.457981-88.74009 239.042281-41.164538 366.983185-41.164538 366.983185-139.585105-52.55189-174.322258-188.504258-180.953282-209.553667-12.818957-40.652885-7.398504-195.256032-7.398504-195.256032-0.551562-10.568706-14.94948-13.294794-19.342534-3.657296 0 0-36.783765 90.458221-41.068348 140.096758-3.501754 40.632419-3.797489 32.1707-3.797489 32.1707-63.229067-58.325383-133.421732-190.403514-133.421732-279.123139 0-178.183192 157.568688-322.629002 351.941608-322.629002 194.367803 0 351.936491 144.44581 351.936491 322.629002C860.46953 327.323163 860.46953 363.854171 846.387813 396.124132L846.387813 396.124132 846.387813 396.124132zM730.981387 89.847563c-59.251475-54.315046-138.250714-84.231403-222.452441-84.231403-84.202751 0-163.201989 29.915333-222.453465 84.231403-58.33664 53.475935-90.462315 124.316354-90.462315 199.460798 0 34.976606 14.202467 83.715657 38.965453 133.725654 9.485025 19.158339 20.13048 37.694507 31.263028 54.671157 12.17939-44.685735 30.087249-89.327468 32.873712-96.167247l0.299829-0.743944 0.331551-0.726547c8.082072-17.745153 25.194822-28.761044 44.654013-28.761044 26.225291 0.004093 47.827285 20.426215 49.186236 46.50415l0.088004 1.687432-0.056282 1.694595c-2.541893 72.730465-1.134847 160.7788 5.619998 182.220135 0.360204 1.127683 0.787946 2.547009 1.295506 4.233418 3.988848 13.271258 14.5903 48.51904 38.690184 85.234243 15.029298 22.892383 32.633235 42.435485 52.67571 58.512648-0.331551-6.355755-0.556679-13.059434-0.647753-20.098757-1.12666-86.901209 17.812691-183.51564 56.281841-287.153022 6.955412-18.735713 25.098631-31.323403 45.137013-31.323403 14.741749 0 28.468378 6.611581 37.662785 18.127869 19.902282 24.927739 31.518854 73.166393 45.757137 138.594545 4.285606 19.682271 10.117428 46.500057 13.19144 53.831023 2.054799 3.526313 4.03285 6.768147 5.932106 9.750061 1.635243-9.226129 4.157693-18.86772 7.846712-28.765137 8.458649-22.688745 21.969361-45.237297 39.065737-73.789587 19.954471-33.313733 44.786019-74.769914 68.877717-129.980353 10.840906-24.835641 10.840906-55.621808 10.840906-91.27789C821.444724 214.163917 789.318026 143.323499 730.981387 89.847563L730.981387 89.847563 730.981387 89.847563zM730.981387 89.847563"  horiz-adv-x="1024" />

    
    <glyph glyph-name="yuanxingdecircular223" unicode="&#58883;" d="M897.66463 676.543864l31.428453-40.026803 15.220068 19.469828 15.170652 19.469828c33.652164 43.041167 25.893883 105.255668-16.900205 138.710168l-78.027558 60.979105c-42.991751 33.553332-105.206251 25.745635-138.660753-17.147284l-30.390721-38.89024 46.450858-20.804054 22.879519 29.303573c16.751958 21.44646 47.933332 25.300892 69.330376 8.59835l78.027558-60.979105c21.347628-16.702542 25.202061-47.883917 8.400687-69.330376L897.66463 676.543864zM511.974262 662.658023 511.974262 366.558512 314.311037 366.558512 314.311037 316.945042 511.974262 316.945042 511.974262 316.747379 561.192405 316.747379 561.192405 316.945042 561.390068 316.945042 561.390068 366.558512 561.192405 366.558512 561.192405 662.658023ZM298.152068 857.949289c-33.602748 43.041167-95.866664 50.601786-138.660753 17.147284L81.414342 814.117468c-42.991751-33.553332-50.404122-95.817248-16.900205-138.710168L94.904857 636.517061l31.428453 40.026803L103.453792 705.847438c-16.751958 21.44646-12.996357 52.627834 8.400687 69.330376L189.882037 836.156918c21.347628 16.702542 52.529002 12.84811 69.330376-8.59835l22.879519-29.303573 46.450858 20.804054L313.32272 838.479462 298.152068 857.949289zM67.232006 366.163185c0-149.285151 73.530719-281.3736 186.396421-362.069613l-98.090376-97.645633 34.591064-34.442817 105.799241 105.354499c63.944053-35.628796 137.62302-55.938692 216.045905-55.938692 76.841579 0 149.087488 19.469828 212.142056 53.764397l103.624946-103.180203 34.591064 34.442817-95.570169 95.174843c114.842334 80.399517 189.954359 213.723362 189.954359 364.540402 0 245.645973-199.096284 444.742256-444.742256 444.742256C266.377705 810.905441 67.232006 611.759742 67.232006 366.163185zM907.300711 366.163185c0-218.319031-177.007418-395.326449-395.326449-395.326449-218.319031 0-395.326449 177.007418-395.326449 395.326449 0 218.319031 177.007418 395.326449 395.326449 395.326449C730.293294 761.489636 907.300711 584.482218 907.300711 366.163185z"  horiz-adv-x="1024" />

    
    <glyph glyph-name="tinggeshiqu40x40" unicode="&#59112;" d="M883.200518 716.79689c0 44.26509-20.40452 89.705237-76.793434 100.11486l0-343.310194c0-1.617431 0-9.953424 0-12.80121 0-70.683137-63.052178-127.998272-140.799482-127.998272-77.774952 0-140.799482 57.315135-140.799482 127.998272 0 70.710785 63.02453 127.998272 140.799482 127.998272 23.16936 0 44.721288-5.584977 64.006048-14.598356L729.613651 857.596371C729.599827 878.816519 746.797133 896 767.989632 896c4.534338 0 12.80121 0 12.80121 0 101.607873 0 179.20311-75.977806 179.20311-179.20311C959.993952 691.208295 883.200518 691.996274 883.200518 716.79689zM665.593779 512.005184c-35.348481 0-64.006048-22.9067-64.006048-51.204838 0-28.256666 28.643743-51.204838 64.006048-51.204838 35.348481 0 64.006048 22.934349 64.006048 51.204838C729.599827 489.098484 700.956084 512.005184 665.593779 512.005184zM601.601555 665.605875c0 77.056093-74.498616 153.600691-166.401901 153.600691S269.599557 741.860165 268.797754 665.605875l0-281.598963c0-107.441686 74.498616-179.20311 166.401901-179.20311 70.752258 0 122.136811 44.845706 140.799482 76.821082 31.380935 53.734667 94.999905 12.082351 51.204838-51.218663-22.809931-32.94307-101.248444-102.395853-191.990496-102.395853-115.915921 0-243.195334 102.506446-243.195334 230.394125L192.018144 665.605875C192.00432 799.921807 300.883723 896 435.199654 896s243.195334-101.676994 243.195334-230.394125c0 0 0-17.459965 0-25.602419l-76.793434 0C601.601555 646.528479 601.601555 665.605875 601.601555 665.605875zM729.599827 256.00864c0 0 17.21113 51.633389 38.403629 51.218663 51.591916-0.981518 38.403629-51.218663 38.403629-51.218663-49.310923-147.504219-176.120314-262.936293-332.789977-279.373267l0-66.231744c0-21.192499-17.197305-38.403629-38.403629-38.403629s-38.403629 17.197305-38.403629 38.403629l0 66.204096C240.001944-6.982949 113.178729 108.26941 64.006048 256.00864c0 0 0 3.303984 0 12.80121 0 21.220148 14.473938 38.154793 35.680261 38.320684 24.593253 0.193539 41.126996-51.121893 41.126996-51.121893 49.200329-117.035681 162.862906-204.791705 294.400173-204.791705C567.220769 51.216935 680.70363 138.281749 729.599827 256.00864z"  horiz-adv-x="1024" />

    
    <glyph glyph-name="youhuiquan" unicode="&#59138;" d="M149.056 618.72l27.008 0 0-94.656-27.008 0L149.056 618.72zM354.432 495.584l276.672 0 0-25.792L354.432 469.792 354.432 495.584zM354.432 272.352l276.672 0 0-25.855L354.432 246.497 354.432 272.352zM149.056 418.72l27.008 0 0-94.655-27.008 0L149.056 418.72zM149.056 220.384l27.008 0 0-94.656-27.008 0L149.056 220.384zM972.8 730.528L51.2 730.528c-28.225 0-51.2-22.912-51.2-51.2l0-601.601c0-28.224 22.912-51.264 51.2-51.264l921.6 0c28.224 0 51.2 22.977 51.2 51.264l0 76.736L867.776 154.463c-14.144 0-25.536 11.521-25.536 25.601l0 1.279c0 14.145 11.456 25.601 25.536 25.601L1024 206.944 1024 352.288 870.079 352.288c-14.144 0-25.6 11.52-25.6 25.6l0 1.28c0 14.208 11.521 25.6 25.6 25.6L1024 404.768 1024 549.856 867.776 549.856c-14.144 0-25.536 11.52-25.536 25.6l0 1.28c0 14.208 11.456 25.6 25.536 25.6L1024 602.336l0 76.992C1024 707.616 1001.088 730.528 972.8 730.528zM868.287 631.072c-30.399 0-54.976-24.64-54.976-54.976 0-30.336 24.64-54.976 54.976-54.976l126.849 0 0-87.552L868.287 433.568c-30.399 0-54.976-24.641-54.976-54.977s24.64-54.976 54.976-54.976l126.849 0 0-87.809L868.287 235.806c-30.399 0-54.976-24.64-54.976-54.976s24.64-54.976 54.976-54.976l126.849 0 0-44.864c0-14.145-11.521-25.473-25.601-25.473L54.4 55.517c-14.144 0-25.6 11.393-25.6 25.473L28.8 676.128c0 14.144 11.456 25.6 25.6 25.6l915.2 0c14.144 0 25.6-11.456 25.6-25.6l0-45.056L868.287 631.072 868.287 631.072z"  horiz-adv-x="1024" />

    
    <glyph glyph-name="fenxiang" unicode="&#58924;" d="M768.731 192.462c-35.607 0-67.946-14.793-91.167-38.359l-309.11 171.67c9.117 17.546 14.621 37.155 14.621 58.313 0 12.557-2.408 24.426-5.676 35.951l304.637 189.215c22.706-20.47 52.464-33.198 85.147-33.198 70.526 0 127.978 57.452 127.978 127.978S837.71 832.011 767.183 832.011s-127.979-57.453-127.979-127.979c0-14.62 2.925-28.382 7.397-41.455L344.716 475.253c-23.05 22.706-54.7 36.984-89.791 36.984-70.526 0-127.979-57.453-127.979-127.979S184.4 256.28 254.925 256.28c25.63 0 49.54 7.74 69.494 20.813l321.15-178.378c-3.096-11.01-5.16-22.19-5.16-34.06 0-70.525 57.452-127.978 127.978-127.978s127.979 57.453 127.979 127.979-57.11 127.806-127.635 127.806z m-1.548 575.56c35.263 0 63.99-28.727 63.99-63.99s-28.727-63.989-63.99-63.989-63.99 28.726-63.99 63.99 28.727 63.989 63.99 63.989zM191.108 384.086c0 35.263 28.726 63.99 63.989 63.99s63.99-28.727 63.99-63.99-28.727-63.99-63.99-63.99-63.99 28.727-63.99 63.99zM768.73 0.49500000000000455c-35.263 0-63.99 28.726-63.99 63.989s28.727 63.989 63.99 63.989 63.99-28.726 63.99-63.99c0-35.434-28.727-63.988-63.99-63.988z"  horiz-adv-x="1024" />

    
    <glyph glyph-name="jiashi" unicode="&#59045;" d="M916.7872 420.77184c15.60064 13.21472 25.51808 32.91648 25.51808 54.89664 0 39.6288-32.24576 71.87456-71.86944 71.87456h-23.85408l-16.33792 53.80608c-12.45696 40.78592-36.39808 69.75488-71.17312 86.1184-13.32736 6.31808-33.9968 12.66688-49.98144 12.66688h-75.71968v10.30656c0 30.88896-20.00896 55.07584-45.52704 55.07584H448.896c-25.51808 0-45.52704-24.18176-45.52704-55.07584v-10.30656H316.73344c-15.98976 0-36.61312-6.35904-49.98144-12.6464-34.78016-16.384-58.72128-45.35296-71.168-86.15936L179.2 547.54304h-20.00896c-39.6288 0-71.87456-32.24064-71.87456-71.87456 0-21.09952 9.12896-40.08448 23.63392-53.25824-27.65824-22.76352-45.44-57.8048-45.44-97.03936v-135.61856c0-2.16064 0.69632-7.10144 1.31072-9.15456 2.75456-9.23648 9.7024-17.78176 20.79744-25.6256v-85.39648c0-36.98688 30.01856-67.08736 66.8928-67.08736h46.88384c36.87424 0 66.8928 30.12608 66.8928 67.15392v38.81984c14.02368-1.37728 27.48416-2.42176 39.936-3.31776 71.25504-5.13536 143.04256-5.56544 204.69248-5.56544s133.43232 0.44032 204.69248 5.56544a1556.224 1556.224 0 0 1 40.27904 3.34336v-38.84544c0-37.02784 29.97248-67.15392 66.84672-67.15392h46.9248c36.87424 0 66.84672 30.1056 66.84672 67.08736v85.632c10.92096 7.81824 17.82272 16.3584 20.53632 25.60512 0.57344 1.98656 1.26464 6.85568 1.26464 8.93952v135.61856c-0.00512 38.31808-16.95232 72.61184-43.52 95.40096z m-41.63072 99.4816c22.41536 0 40.71424-18.25792 40.71424-40.71424a40.7552 40.7552 0 0 0-31.60064-39.70048l-24.45312 80.4096h15.33952z m-712.02304 0.6912h10.46016l-26.21952-86.13888c-16.75776 6.37952-28.71808 22.6304-28.71808 41.65632-0.00512 24.52992 19.98336 44.48256 44.47744 44.48256z m42.7264-481.99168H150.02624c-14.78144 0-26.37824 11.68384-26.37824 26.61376v76.672a384.6656 384.6656 0 0 1 17.07008-5.25312c23.67488-6.73792 48.54784-11.91936 73.4208-16l18.10432-4.94592v-50.39104c0-14.73024-11.81696-26.69568-26.38336-26.69568z m669.40928 1.58208h-54.16448c-14.06976 0-25.5232 11.60192-25.5232 25.87136v48.8448l18.10432 4.9408c23.80288 3.93216 47.61088 8.92928 70.20032 15.36a404.48 404.48 0 0 1 16.896 5.21728v-74.43456h0.00512c0.00512-14.47936-11.19232-25.79968-25.51808-25.79968z m49.67424 151.40352c-2.72896-2.39104-7.91552-5.504-14.80192-8.78592l-94.5152-25.79968c-33.75104-5.45792-67.77856-8.42752-96.56832-10.50112-71.40352-5.1456-143.82592-5.56544-206.1568-5.56544s-134.75328 0.42496-206.1568 5.56544c-28.5696 2.05312-62.2336 5.00736-95.72352 10.37312l-95.7696 26.13248c-6.7072 3.21536-11.75552 6.23616-14.39232 8.60672v134.59968c0 40.48384 28.3904 74.12224 65.41312 80.22528h1.56672c2.14528 0 4.2496 0.29184 6.26176 0.8704 1.38752 0.06656 2.816 0.11264 4.2496 0.11264H847.4624c42.74176 0 77.48096-36.43392 77.48096-81.21344v-134.62016zM803.01568 589.6704c-9.02144 29.66016-25.11872 49.59232-49.20832 60.91264-10.20416 4.82816-24.58112 8.7296-32.11264 8.7296H314.4192c-7.5264 0-21.90336-3.90144-32.06144-8.70912-0.04608 0-0.04608 0-0.04608-0.02048-24.07936-11.3152-40.18176-31.25248-49.20832-60.93312l-43.904-144.09216h657.67424l-43.85792 144.11264zM607.10912 722.16576c0 12.30336-3.15904 19.81952-4.26496 21.16096l-172.89216-1.29536c2.10944-0.04096-0.99328-7.54688-0.99328-19.85024v-19.81952h178.1504v19.80416zM263.296 357.0944c-42.38336 0-76.85632-34.47296-76.85632-76.85632 0-42.38336 34.47296-76.85632 76.85632-76.85632s76.85632 34.47296 76.85632 76.85632c0 42.38848-34.46784 76.85632-76.85632 76.85632z m0-118.78912c-23.10656 0-41.9328 18.80064-41.9328 41.9328 0 23.13728 18.82624 41.9328 41.9328 41.9328s41.9328-18.80064 41.9328-41.9328c0.01024-23.13216-18.816-41.9328-41.9328-41.9328zM745.50784 357.0944c-42.38336 0-76.85632-34.47296-76.85632-76.85632 0-42.38336 34.47296-76.85632 76.85632-76.85632s76.85632 34.47296 76.85632 76.85632c0 42.38848-34.47296 76.85632-76.85632 76.85632z m0-118.78912c-23.10656 0-41.9328 18.80064-41.9328 41.9328 0 23.13728 18.82624 41.9328 41.9328 41.9328s41.9328-18.80064 41.9328-41.9328c0.01024-23.13216-18.82112-41.9328-41.9328-41.9328z"  horiz-adv-x="1024" />

    
    <glyph glyph-name="fujin" unicode="&#58914;" d="M512 827c-191.9 0-348.1-156.2-348.1-348.1 0-91.9 72.7-227.6 216.2-403.4 11-13.5 31-15.5 44.5-4.5s15.6 30.9 4.5 44.5c-130.2 159.5-202 288.6-202 363.3 0 157 127.8 284.8 284.8 284.8s284.8-127.8 284.8-284.8C796.7 346 574.6 84 489-5.7c-12.1-12.6-11.6-32.7 1-44.7 6.1-5.8 14-8.7 21.8-8.7 8.4 0 16.7 3.3 22.9 9.8 13.3 13.9 325.2 342.9 325.2 528.1 0.2 192-156 348.2-347.9 348.2zM701.9 478.9c0 104.7-85.2 189.9-189.9 189.9s-189.9-85.2-189.9-189.9S407.3 289.1 512 289.1s189.9 85.1 189.9 189.8z m-316.5 0c0 69.8 56.8 126.6 126.6 126.6s126.6-56.8 126.6-126.6S581.8 352.3 512 352.3s-126.6 56.8-126.6 126.6z"  horiz-adv-x="1024" />

    
    <glyph glyph-name="yinyue" unicode="&#59008;" d="M219.5-66C133.59090869-66 62 3.545454790000008 62 91.5s69.54545479 157.5 157.5 157.5c34.77272695 0 67.5-12.27272695 96.13636347-32.72727305l8.18181827-6.13636347V715.36363653c0 30.68181826 24.54545479 55.22727305 53.18181826 55.22727216l525.68181826 61.36363652h4.09090869C935.40909131 834 962 809.45454521 962 778.77272695v-591.13636347c0-42.95454521-16.36363653-81.81818174-47.04545479-110.45454522-28.63636347-28.63636347-69.54545479-45-110.45454521-45-85.90909131 0-157.5 69.54545479-157.5 157.5 0 85.90909131 69.54545479 157.5 157.5 157.5 34.77272695 0 69.54545479-12.27272695 96.13636347-32.72727305l8.18181827-6.13636347V582.40909131l-531.81818174-57.27272784v-433.63636347c-2.04545479-87.95454521-71.59090869-157.5-157.5-157.5z m0 259.77272695c-57.27272695 0-104.31818174-47.04545479-104.31818174-104.31818174s47.04545479-104.31818174 104.31818174-104.31818174 104.31818174 47.04545479 104.31818174 104.31818174c-2.04545479 59.31818174-47.04545479 104.31818174-104.31818174 104.31818174z m585 98.18181826c-57.27272695 0-104.31818174-47.04545479-104.31818174-104.31818174s47.04545479-104.31818174 104.31818174-104.31818173 104.31818174 47.04545479 104.31818174 104.31818173-47.04545479 104.31818174-104.31818174 104.31818174z m-429.54545479 286.36363653l531.81818174 57.27272695V780.81818174l-525.68181826-61.36363653h-6.13636348v-141.13636347z"  horiz-adv-x="1024" />

    
    <glyph glyph-name="fanhui" unicode="&#59025;" d="M129.465 400.262c-11.408-11.408-11.408-29.855 0-41.142l351.952-351.952c11.408-11.408 29.855-11.408 41.142 0 5.703 5.703 8.496 13.107 8.496 20.631s-2.791 14.928-8.496 20.631l-302.194 302.194h650.627c16.142 0 29.127 12.986 29.127 29.127s-12.986 29.127-29.127 29.127h-650.627l302.194 302.194c5.703 5.703 8.496 13.107 8.496 20.631s-2.791 14.928-8.496 20.631c-11.408 11.408-29.855 11.408-41.142 0l-351.952-352.074z"  horiz-adv-x="1024" />

    
    <glyph glyph-name="shipin" unicode="&#59081;" d="M0.000569 668.103111A113.777778 113.777778 0 0 0 113.493902 782.222222h797.013334A113.777778 113.777778 0 0 0 1024.000569 668.103111v-568.206222A113.777778 113.777778 0 0 0 910.507236-14.222222H113.493902A113.777778 113.777778 0 0 0 0.000569 99.896889V668.103111zM56.889458 725.333333v-682.666666h910.222222V725.333333H56.889458z m625.777778-341.333333l-284.444445-170.666667V554.666667l284.444445-170.666667z"  horiz-adv-x="1024" />

    
    <glyph glyph-name="rili" unicode="&#58880;" d="M334.079798 84.500788h61.398372v343.830883h-45.680389c-1.964748-10.483772-6.139837-19.325138-12.525268-26.524097-6.385431-7.206122-14.083763-13.101389-23.085788-17.682731-9.010211-4.589528-19.079544-7.858992-30.207999-9.823739-11.135618-1.964748-22.594601-2.947122-34.383088-2.947122v-44.206828h84.48416v-242.646366zM642.544195 313.885106a533.118993 533.118993 0 0 1-40.522925-71.713298c-11.626805-24.889877-21.12104-50.592258-28.488845-77.116356s-12.034081-53.377698-13.998829-80.554664h61.398372c2.286066 31.105439 6.876618 60.247152 13.752212 87.431282 6.876618 27.175943 15.795754 52.963259 26.76969 77.361949 10.967796 24.390503 23.822568 47.476291 38.558178 69.257363 14.735609 21.772886 31.105439 42.810015 49.118697 63.117526v46.662763h-235.278561v-50.101071h178.300872c-17.681708-19.976984-34.220383-41.428551-49.608861-64.345494zM838.026378 769.590985h-59.445904V816.762331c0 6.723122-5.64251 12.254092-12.603039 12.254092h-34.219359c-7.118118 0-12.602016-5.485945-12.602016-12.254092v-47.171346h-415.973969V816.762331c0 6.723122-5.64251 12.254092-12.602016 12.254092h-34.220383c-7.118118 0-12.602016-5.485945-12.602016-12.254092v-47.171346H184.311773c-65.738213 0-118.828362-53.168943-118.828363-118.755707v-594.434478c0-65.448618 53.200666-118.755708 118.828363-118.755707h653.715628c65.738213 0 118.828362 53.168943 118.828363 118.755707V650.835278c-0.001023 65.448618-53.202713 118.755708-118.829386 118.755707z m59.402925-713.191208c0-32.806173-26.523073-59.331293-59.402925-59.331293H184.310749c-32.757055 0-59.402925 26.65201-59.402925 59.331293V531.892305h772.521479v-475.492528z m0 534.916942H124.907824v59.518559c0 32.806173 26.523073 59.331293 59.402925 59.331293h59.445904v-47.171346c0-6.723122 5.64251-12.254092 12.602016-12.254091h34.220382c7.118118 0 12.602016 5.485945 12.602016 12.254091v47.171346h415.972947v-47.171346c0-6.723122 5.64251-12.254092 12.602015-12.254091h34.21936c7.119141 0 12.603039 5.485945 12.603039 12.254091v47.171346h59.445904c32.757055 0 59.402925-26.65201 59.402924-59.331293v-59.518559z"  horiz-adv-x="1024" />

    
    <glyph glyph-name="shouji" unicode="&#58898;" d="M394.395 100.109c-26.407 0-47.89-21.482-47.89-47.891 0-26.407 21.484-47.891 47.89-47.891 26.408 0 47.893 21.483 47.893 47.891-0.001 26.409-21.485 47.891-47.893 47.891zM631.334 853.931H157.458c-39.865 0-72.298-32.433-72.298-72.298v-795.266c0-39.866 32.433-72.298 72.298-72.298h473.875c39.865 0 72.297 32.432 72.297 72.298V781.633c0.001 39.865-32.431 72.298-72.296 72.298zM157.458 805.732h473.875c13.289 0 24.1-10.812 24.1-24.1v-595.808H133.359V781.633c0 13.288 10.811 24.099 24.099 24.099z m473.876-843.463H157.458c-13.288 0-24.1 10.81-24.1 24.099V133.5h522.075v-147.133c0.001-13.289-10.81-24.098-24.099-24.098z"  horiz-adv-x="1024" />

    
    <glyph glyph-name="jingpintuijian" unicode="&#59212;" d="M955.0848 562.0735999999999c-5.3248 4.7104-12.0832 7.3728-18.7392 7.3728s-14.0288-2.6624-19.456-7.9872L714.752 351.8464c-2.048-2.048-3.9936-2.6624-6.0416-2.6624-1.3312 0-2.6624 0.7168-3.3792 0.7168-1.3312 0.7168-2.048 1.3312-2.6624 2.6624L540.7744 663.7568c-2.6624 4.7104-6.0416 8.704-10.752 11.3664-3.9936 2.6624-9.3184 3.9936-14.0288 3.9936s-9.4208-1.3312-14.0288-3.9936c-3.9936-2.6624-7.9872-6.0416-10.752-11.3664L327.9872 350.51520000000005c-0.7168-1.3312-1.3312-2.048-2.6624-2.6624-1.3312-0.7168-2.6624-1.3312-3.9936-1.3312-2.048 0-3.9936 0.7168-5.3248 2.048L113.7664 557.9775999999999c-5.3248 5.3248-12.6976 7.9872-19.456 7.9872-7.3728 0-14.0288-2.6624-18.7392-7.3728-5.3248-4.7104-8.704-11.3664-8.704-19.456 0-2.048 0-3.3792 0.7168-5.3248l74.9568-419.6352c0.7168-6.0416 3.9936-11.3664 7.9872-15.36 3.9936-3.9936 10.0352-6.656 16.0768-6.656h694.0672c6.656 0 12.6976 2.048 18.0224 6.0416 4.7104 3.9936 8.704 9.3184 9.3184 16.0768l74.9568 421.6832c0.7168 2.048 0.7168 3.3792 0.7168 5.3248 0.1024 8.704-3.8912 16.0768-8.6016 20.7872zM825.856 179.20000000000005c0-2.048-1.3312-3.3792-2.048-3.9936-1.3312-0.7168-2.048-1.3312-3.3792-1.3312H212.7872c-2.048 0-3.9936 0.7168-5.3248 2.048-1.3312 1.3312-2.048 2.6624-2.6624 3.9936L171.3152 370.688v2.048c0 2.048 0.7168 3.9936 2.048 5.3248 1.3312 1.3312 3.3792 2.048 5.3248 2.048s3.3792-0.7168 5.3248-2.6624l129.8432-135.168c5.3248-5.3248 12.6976-8.704 20.0704-8.704 4.7104 0 9.4208 1.3312 14.0288 3.9936 3.9936 2.6624 7.9872 6.0416 10.0352 10.752l151.2448 289.1776c0.7168 1.3312 2.048 2.6624 2.6624 3.3792 1.3312 0.7168 2.048 0.7168 3.3792 0.7168 1.3312 0 2.6624 0 3.3792-0.7168 1.3312-0.7168 2.048-1.3312 2.6624-3.3792l151.2448-289.1776c2.6624-4.7104 6.0416-8.704 10.752-11.3664 3.9936-2.6624 9.3184-3.9936 14.0288-3.9936 7.3728 0 14.7456 2.6624 20.0704 8.704l130.56 135.168c2.048 2.048 3.3792 2.048 5.3248 2.048 2.048 0 3.9936-0.7168 5.3248-2.048 1.3312-1.3312 2.048-2.6624 2.048-4.7104v-1.3312l-34.816-191.5904zM851.3536 43.315200000000004H180.736c-7.3728 0-14.7456-3.3792-19.456-7.9872-4.7104-4.7104-7.9872-12.0832-7.9872-19.456v-26.7264c0-7.3728 3.3792-14.7456 7.9872-19.456 4.7104-4.7104 12.0832-7.9872 19.456-7.9872h669.9008c7.3728 0 14.7456 3.3792 19.456 7.9872 4.7104 4.7104 7.9872 12.0832 7.9872 19.456v26.7264c0 7.3728-2.6624 14.7456-7.3728 19.456-5.3248 5.3248-11.9808 7.9872-19.3536 7.9872zM0 647.6800000000001c0-24.7808 20.0704-44.8512 44.8512-44.8512 24.7808 0 44.8512 20.0704 44.8512 44.8512 0 24.7808-20.0704 44.8512-44.8512 44.8512-24.7808 0-44.8512-20.0704-44.8512-44.8512M934.2976 647.6800000000001c0-24.7808 20.0704-44.8512 44.8512-44.8512 24.7808 0 44.8512 20.0704 44.8512 44.8512 0 24.7808-20.0704 44.8512-44.8512 44.8512-24.7808 0-44.8512-20.0704-44.8512-44.8512M469.8112 761.4464c0-24.7808 20.0704-44.8512 44.8512-44.8512 24.7808 0 44.8512 20.0704 44.8512 44.8512 0 24.7808-20.0704 44.8512-44.8512 44.8512-24.7808 0-44.8512-20.0704-44.8512-44.8512"  horiz-adv-x="1024" />

    
    <glyph glyph-name="gengduo" unicode="&#58888;" d="M512 384m-80.001676 0a80.001676 80.001676 0 1 1 160.003352 0 80.001676 80.001676 0 1 1-160.003352 0ZM512 655.997795m-80.001676 0a80.001676 80.001676 0 1 1 160.003352 0 80.001676 80.001676 0 1 1-160.003352 0ZM512 111.999383m-80.001676 0a80.001676 80.001676 0 1 1 160.003352 0 80.001676 80.001676 0 1 1-160.003352 0Z"  horiz-adv-x="1024" />

    
    <glyph glyph-name="details" unicode="&#58977;" d="M492 461.777h40v-280h-40zM492 586.075h40v-50h-40zM512 789c54.692 0 107.727-10.702 157.632-31.81 48.222-20.396 91.539-49.604 128.746-86.811 37.208-37.207 66.415-80.524 86.812-128.746 21.107-49.906 31.81-102.941 31.81-157.633s-10.703-107.727-31.81-157.632c-20.396-48.223-49.604-91.539-86.812-128.746-37.207-37.208-80.523-66.415-128.746-86.812-49.905-21.107-102.94-31.81-157.632-31.81s-107.727 10.703-157.632 31.81c-48.224 20.396-91.539 49.604-128.746 86.812-37.208 37.207-66.415 80.523-86.811 128.746-21.109 49.905-31.811 102.94-31.811 157.632s10.702 107.727 31.81 157.632c20.396 48.223 49.604 91.539 86.811 128.746 37.207 37.208 80.523 66.415 128.746 86.811 49.906 21.109 102.941 31.811 157.633 31.811M512 829c-245.767 0-445-199.233-445-445s199.233-445 445-445 445 199.233 445 445-199.233 445-445 445z"  horiz-adv-x="1024" />

    
    <glyph glyph-name="jinqianguan" unicode="&#58904;" d="M949.76 250.88c-2.56 2.56-7.68 5.12-12.8 5.12-10.24 0-17.92-7.68-17.92-17.92 0-5.12 2.56-10.24 5.12-12.8l2.56-2.56c15.36-15.36 23.04-35.84 23.04-53.76 0-40.96-46.08-81.92-125.44-112.64-84.48-33.28-199.68-51.2-320-51.2s-232.96 17.92-320 51.2c-79.36 30.72-125.44 71.68-125.44 112.64 0 23.04 7.68 38.4 28.16 56.32 2.56 2.56 5.12 7.68 5.12 12.8 0 10.24-7.68 17.92-17.92 17.92-5.12 0-10.24-2.56-12.8-5.12l-2.56-2.56c-25.6-25.6-38.4-51.2-38.4-79.36 0-56.32 48.64-107.52 138.24-143.36 89.6-38.4 212.48-58.88 348.16-58.88 135.68 0 258.56 20.48 348.16 58.88s138.24 89.6 138.24 143.36c-2.56 25.6-15.36 53.76-43.52 81.92zM855.04 757.76c-89.6 38.4-215.04 58.88-348.16 58.88-135.68 0-258.56-20.48-348.16-58.88s-138.24-89.6-138.24-145.92 48.64-107.52 138.24-145.92 215.04-58.88 348.16-58.88c135.68 0 258.56 20.48 348.16 58.88s138.24 89.6 138.24 145.92-51.2 107.52-138.24 145.92z m-30.72-256c-84.48-33.28-197.12-51.2-317.44-51.2s-232.96 17.92-317.44 51.2c-79.36 30.72-125.44 71.68-125.44 112.64s46.08 79.36 125.44 112.64c84.48 33.28 197.12 51.2 317.44 51.2s232.96-17.92 317.44-51.2c79.36-30.72 125.44-71.68 125.44-112.64 0-40.96-46.08-81.92-125.44-112.64zM74.24 478.72c-5.12 0-10.24-2.56-12.8-5.12l-2.56-2.56c-25.6-25.6-38.4-51.2-38.4-79.36 0-56.32 48.64-107.52 138.24-143.36 89.6-38.4 212.48-58.88 348.16-58.88 135.68 0 258.56 20.48 348.16 58.88s138.24 89.6 138.24 143.36c0 28.16-12.8 56.32-38.4 81.92l-2.56 2.56c-2.56 2.56-7.68 5.12-12.8 5.12-10.24 0-17.92-7.68-17.92-17.92 0-5.12 2.56-10.24 5.12-12.8l2.56-2.56c15.36-15.36 23.04-35.84 23.04-53.76 0-40.96-46.08-81.92-125.44-112.64-84.48-33.28-199.68-51.2-320-51.2s-232.96 17.92-320 51.2c-79.36 30.72-125.44 71.68-125.44 112.64 0 23.04 7.68 38.4 28.16 56.32 2.56 2.56 5.12 7.68 5.12 12.8s-10.24 15.36-20.48 15.36z"  horiz-adv-x="1024" />

    
    <glyph glyph-name="552dc065f0478" unicode="&#58884;" d="M822.3957520507813-6.42799013671879L210.93182421875002-6.42799013671879c-32.377148437500004 0-58.71668994140625 26.340441503906252-58.71668994140625 58.71668994140625L152.21513427734374 266.13041542968756c0 8.94083818359375 7.248186035156249 16.18902421875 16.18902421875 16.18902421875s16.18902421875-7.248186035156249 16.18902421875-16.18902421875l0-213.84171562499998c0-14.52245361328125 11.815289648437501-26.338642382812502 26.338642382812502-26.338642382812502l611.4639278320312 0c14.523352734374999 0 26.338642382812502 11.816188769531252 26.338642382812502 26.338642382812502L848.7343944335937 266.13041542968756c0 8.94083818359375 7.248186035156249 16.18902421875 16.18902421875 16.18902421875s16.18902421875-7.248186035156249 16.18902421875-16.18902421875l0-213.84171562499998C881.1124419921875 19.912451367187487 854.7720004882813-6.42799013671879 822.3957520507813-6.42799013671879zM864.9234177734374 482.09379228515627c-8.94083818359375 0-16.18902421875 7.248186035156249-16.18902421875 16.18902421875l0 228.88581503906252c0 14.52245361328125-11.815289648437501 26.338642382812502-26.338642382812502 26.338642382812502L210.93182421875002 753.5072739257812c-14.523352734374999 0-26.338642382812502-11.815289648437501-26.338642382812502-26.338642382812502l0-228.88581503906252c0-8.94083818359375-7.248186035156249-16.18902421875-16.18902421875-16.18902421875s-16.18902421875 7.248186035156249-16.18902421875 16.18902421875l0 228.88581503906252c0 32.376249316406245 26.340441503906252 58.71668994140625 58.71668994140625 58.71668994140625l611.4639278320312 0c32.376249316406245 0 58.71668994140625-26.340441503906252 58.71668994140625-58.71668994140625l0-228.88581503906252C881.1124419921875 489.34197832031253 873.8651550781249 482.09379228515627 864.9234177734374 482.09379228515627zM906.7423642578125 371.15580820312505L127.07987626953121 371.15580820312505c-8.94083818359375 0-16.18902421875 7.248186035156249-16.18902421875 16.18902421875s7.248186035156249 16.18902421875 16.18902421875 16.18902421875l779.6615897460937 0c8.94083818359375 0 16.18902421875-7.248186035156249 16.18902421875-16.18902421875S915.6832024414064 371.15580820312505 906.7423642578125 371.15580820312505z"  horiz-adv-x="1024" />

    
    <glyph glyph-name="zaixiantingge" unicode="&#58885;" d="M834.706286-39.058286h-696.32c-9.654857 0-17.554286 7.899429-17.554286 17.554286v550.034286c0 9.654857 7.899429 17.554286 17.554286 17.554285h696.32c9.654857 0 17.554286-7.899429 17.554285-17.554285v-550.034286c0-9.654857-7.899429-17.554286-17.554285-17.554286zM805.888-11.702857H167.204571c-9.654857 0-17.554286 7.899429-17.554285 17.554286V501.174857c0 9.654857 7.899429 17.554286 17.554285 17.554286h638.683429c9.654857 0 17.554286-7.899429 17.554286-17.554286v-495.323428c0-9.654857-7.899429-17.554286-17.554286-17.554286zM842.752 544.036571H129.755429l89.088 148.041143h534.820571zM812.909714 537.453714H159.451429l81.773714 135.606857h490.057143zM237.275429 250.148571h21.942857v-175.542857h-21.942857zM314.368 250.148571h21.942857v-175.542857h-21.942857zM396.141714 250.148571h21.942857v-175.542857h-21.942857zM121.856 534.528l36.278857 56.612571M851.090286 534.528l-60.416 95.963429"  horiz-adv-x="1024" />

    
    <glyph glyph-name="qianjin1" unicode="&#58902;" d="M479.8-64.1c5.8 0 11.5 2.2 15.9 6.6l463.9 463.9L494.9 826.9c-9.2 8.4-23.5 7.6-31.8-1.6-8.4-9.2-7.6-23.5 1.6-31.8l429.7-388.8-430.5-430.4c-8.8-8.8-8.8-23 0-31.8 4.4-4.4 10.1-6.6 15.9-6.6z"  horiz-adv-x="1024" />

    
    <glyph glyph-name="shezhi" unicode="&#58903;" d="M512 523.8c-76.9 0-139.2-62.3-139.2-139.2 0-76.9 62.3-139.2 139.2-139.2 76.9 0 139.2 62.3 139.2 139.2 0 76.9-62.3 139.2-139.2 139.2z m0-222.6c-46.1 0-83.5 37.4-83.5 83.5s37.4 83.5 83.5 83.5 83.5-37.4 83.5-83.5c0-46.2-37.4-83.5-83.5-83.5zM867.6 508l-6.5 2.1c-4 11.2-8.5 22.1-13.5 32.8l3.1 6c14.8 17.7 22.8 39.8 22.8 63.2 0 26.5-10.3 51.3-29 70l-35 35c-18.7 18.7-43.6 29-70 29-23.4 0-45.5-8-63.2-22.8l-6-3.1c-10.7 5-21.6 9.5-32.8 13.5l-2.2 6.6c-4.6 50.3-47.1 89.7-98.5 89.7h-49.5c-51.5 0-93.9-39.5-98.5-89.8l-2.1-6.5c-11.2-4-22.1-8.5-32.7-13.5l-6.3 3.1C330 738 308 746 284.7 746c-26.4 0-51.3-10.3-69.9-29l-35-35c-18.7-18.7-29-43.5-29-70 0-23.3 8-45.4 22.7-63.1l3.1-6.3c-5-10.6-9.4-21.4-13.4-32.5l-6.8-2.3c-50.2-4.8-89.6-47.1-89.6-98.5v-49.5c0-51.4 39.4-93.8 89.6-98.5l6.8-2.3c4-11.1 8.5-22 13.4-32.5l-3.1-6.3c-14.7-17.7-22.7-39.7-22.7-63 0-26.4 10.3-51.3 29-70l35-35c18.7-18.7 43.5-29 70-29 23.3 0 45.3 8 63 22.7l6.3 3.1c10.6-5 21.5-9.4 32.5-13.4l2.3-6.8c4.8-50.1 47.1-89.5 98.5-89.5h49.5c51.4 0 93.8 39.4 98.5 89.5l2.3 6.8c11.1 4 22 8.5 32.6 13.5l6.1-3.1c17.7-14.7 39.8-22.8 63.2-22.8 26.4 0 51.3 10.3 70 29l35 35c18.7 18.7 29 43.5 29 70 0 23.4-8 45.5-22.8 63.2l-3.1 6c5 10.7 9.5 21.6 13.5 32.8l6.6 2.2c50.3 4.6 89.8 47.1 89.8 98.5v49.5c-0.2 51.5-39.7 93.9-90 98.6z m34.2-147.7c0-26.9-21.8-48.7-48.7-48.7l-36.2-11.9c-7-24.9-16.7-48.6-29.2-70.6l17.2-33.9c19-19 19-49.9 0-68.9l-34.5-34.5c-9.5-9.5-22-14.3-34.4-14.3-12.5 0-24.9 4.8-34.5 14.3l-34 17.2c-21.9-12.4-45.5-22.2-70.3-29.1L585 43.5c0-26.9-21.8-48.7-48.7-48.7h-48.7c-26.9 0-48.7 21.8-48.7 48.7l-12.2 36.4c-24.7 6.9-48.2 16.6-70 28.9l-34.2-17c-9.5-9.5-22-14.3-34.5-14.3s-24.9 4.8-34.4 14.3l-34.4 34.5c-19 19-19 49.9 0 68.9l17 34.2c-12.3 21.8-22 45.3-28.9 70L171 311.6c-26.9 0-48.7 21.8-48.7 48.7V409c0 26.9 21.8 48.7 48.7 48.7l36.3 12.2c6.9 24.7 16.6 48.2 28.9 70l-17 34.2c-19 19-19 49.9 0 68.9l34.4 34.5c9.5 9.5 22 14.3 34.4 14.3 12.5 0 21.8 0 31.5-9.7l34.7-17.3c22.3 12.6 46.3 22.5 71.5 29.5l13.1 31.5c0 26.9 21.8 48.7 48.7 48.7h48.7c26.9 0 48.7-21.8 48.7-48.7l11.9-36.2c24.9-6.9 48.6-16.7 70.6-29.2l33.9 17.2c9.5 9.5 25.3 19.1 37.9 19.1 12.7 0 21.4-9.6 30.9-19.1l34.5-34.5c19-19 19-49.9 0-68.9l-17.2-33.9c12.5-22 22.2-45.7 29.2-70.6l36.2-11.8c26.9 0 48.7-21.8 48.7-48.7v-48.9z"  horiz-adv-x="1024" />

    
    <glyph glyph-name="diantai" unicode="&#58895;" d="M965 31.399999999999977H65V677.2h900v-645.8z m-830 70h760V607.2H135v-505.8zM588.6 778.2h232.3v-70H588.6zM691.1 478.6H773v-232.3h-81.9zM248.9 362.5c0-4.4 0.2-8.8 0.6-13.2h274.8c0.4 4.3 0.6 8.7 0.6 13.2 0 5.4-0.3 10.7-0.9 15.9H249.8c-0.6-5.3-0.9-10.6-0.9-15.9zM256.6 316.9c3.6-10.4 8.5-20.3 14.4-29.4h231.8c5.9 9.1 10.8 19 14.4 29.4H256.6zM300.2 255.10000000000002c23.7-19.2 53.9-30.7 86.8-30.7s63.1 11.5 86.8 30.7H300.2zM271.8 438.5c-5.7-8.6-10.5-17.9-14.2-27.8h258.7c-3.7 9.8-8.4 19.2-14.2 27.8H271.8zM472.4 470.9c-23.5 18.5-53.2 29.6-85.4 29.6-32.3 0-61.9-11.1-85.4-29.6h170.8zM389.6 214.70000000000005c-81.5 0-147.8 66.3-147.8 147.8s66.3 147.8 147.8 147.8S537.4 444 537.4 362.5s-66.3-147.8-147.8-147.8z m0 265.6c-65 0-117.8-52.8-117.8-117.8s52.8-117.8 117.8-117.8 117.8 52.8 117.8 117.8-52.8 117.8-117.8 117.8z"  horiz-adv-x="1024" />

    
    <glyph glyph-name="dingshi" unicode="&#58889;" d="M512-63.5C264.85-63.5 64.5 136.85 64.5 384S264.85 831.5 512 831.5 959.5 631.15 959.5 384 759.15-63.5 512-63.5z m0 835.33c-214.19 0-387.83-173.64-387.83-387.83S297.81-3.83 512-3.83 899.83 169.81 899.83 384 726.19 771.83 512 771.83z m-29.83-400.19v251h59.67v-226.28L677.14 261 635 218.86z"  horiz-adv-x="1024" />

    
    <glyph glyph-name="yejianmoshi" unicode="&#58890;" d="M512 844.8c28.16 0 56.32-2.56 81.92-7.68C524.8 768 486.4 675.84 486.4 576c0-204.8 166.4-371.2 371.2-371.2 28.16 0 56.32 2.56 81.92 10.24C872.96 40.960000000000036 704-76.79999999999995 512-76.79999999999995c-253.44 0-460.8 207.36-460.8 460.8S258.56 844.8 512 844.8m0 51.2C230.4 896 0 665.6 0 384s230.4-512 512-512c253.44 0 463.36 184.32 504.32 427.52-46.08-25.6-99.84-43.52-158.72-43.52C680.96 256 537.6 399.36 537.6 576c0 122.88 69.12 227.84 168.96 281.6C645.12 883.2 581.12 896 512 896zM801.28 558.0799999999999l20.48-43.52 48.64-7.68-35.84-33.28 7.68-48.64-40.96 23.04-43.52-23.04 7.68 48.64-35.84 33.28 48.64 7.68zM952.32 714.24l-17.92-46.08 25.6-40.96-48.64 5.12-30.72-38.4-12.8 48.64-43.52 17.92 40.96 25.6 2.56 48.64 38.4-33.28z"  horiz-adv-x="1024" />

    
    <glyph glyph-name="youxi" unicode="&#58891;" d="M889.6 12.8c-64 0-102.4 38.4-140.8 83.2-12.8 12.8-32 32-51.2 44.8-44.8 44.8-89.6 51.2-134.4 51.2H454.4c-44.8 0-89.6-6.4-140.8-44.8-19.2-19.2-32-32-51.2-44.8-44.8-44.8-76.8-83.2-140.8-83.2-25.6 0-44.8 6.4-64 25.6-38.4 38.4-44.8 147.2-25.6 320 25.6 243.2 140.8 332.8 236.8 332.8 32 0 57.6-12.8 83.2-32 32-12.8 70.4-38.4 153.6-38.4s121.6 25.6 160 44.8c25.6 12.8 51.2 32 83.2 32 96 0 204.8-89.6 236.8-332.8 19.2-179.2 12.8-281.6-32-326.4-19.2-25.6-38.4-32-64-32z m-326.4 211.2c51.2 0 102.4-6.4 160-57.6l51.2-51.2c38.4-44.8 70.4-70.4 121.6-70.4 12.8 0 25.6 6.4 38.4 19.2 32 38.4 44.8 140.8 25.6 300.8-25.6 224-121.6 307.2-204.8 307.2-25.6 0-44.8-12.8-64-25.6-38.4-19.2-83.2-51.2-172.8-51.2s-147.2 25.6-185.6 51.2c-25.6 12.8-38.4 25.6-64 25.6-83.2 0-179.2-83.2-204.8-307.2-19.2-166.4-12.8-268.8 25.6-300.8 12.8-12.8 25.6-19.2 38.4-19.2 51.2 0 76.8 32 121.6 70.4 12.8 19.2 32 32 51.2 51.2 64 57.6 128 57.6 185.6 57.6h76.8z m0 0M800 499.2c0-25.6-19.2-44.8-44.8-44.8-25.6 0-44.8 19.2-44.8 44.8 0 25.6 19.2 44.8 44.8 44.8 25.6 0 44.8-19.2 44.8-44.8z m0 0M800 313.6c0-25.6-19.2-44.8-44.8-44.8-25.6 0-44.8 19.2-44.8 44.8 0 25.6 19.2 44.8 44.8 44.8 25.6 0 44.8-19.2 44.8-44.8z m0 0M844.8 358.4c-25.6 0-44.8 19.2-44.8 44.8 0 25.6 19.2 44.8 44.8 44.8 25.6 0 44.8-19.2 44.8-44.8 6.4-25.6-19.2-44.8-44.8-44.8z m0 0M659.2 358.4c-25.6 0-44.8 19.2-44.8 44.8 0 25.6 19.2 44.8 44.8 44.8s44.8-19.2 44.8-44.8c0-25.6-19.2-44.8-44.8-44.8z m0 0M384 435.2H307.2V512c0 19.2-12.8 32-32 32-12.8 0-32-12.8-32-32v-76.8H166.4c-19.2 0-32-12.8-32-32s12.8-32 32-32h76.8v-76.8c0-19.2 12.8-32 32-32s32 12.8 32 32V371.2H384c19.2 0 32 12.8 32 32s-12.8 32-32 32z m0 0"  horiz-adv-x="1024" />

    
    <glyph glyph-name="bofang1" unicode="&#58886;" d="M512-71.111c-250.311 0-455.111 204.8-455.111 455.111S261.689 839.111 512 839.111 967.111 634.311 967.111 384 762.311-71.111 512-71.111z m0 56.889c221.867 0 398.222 176.355 398.222 398.222S733.867 782.222 512 782.222 113.778 605.867 113.778 384 290.133-14.222 512-14.222zM796.444 384l-455.11-227.556V611.556z"  horiz-adv-x="1024" />

    
    <glyph glyph-name="gouwuche" unicode="&#58892;" d="M1021.751424 600.3199999999999L893.751424 153.60000000000002l-5.12-19.2h-576c-39.68 0-80.64 29.44-93.44 66.56L1.591424 846.08c-5.12 14.08 2.56 28.16 16.64 33.28 12.8 3.84 28.16-2.56 32-16.64l60.16-177.92h848.64c46.08 0 75.52-39.68 62.72-84.48zM267.831424 218.88c5.12-16.64 26.88-32 43.52-32h537.6L905.271424 384H211.511424l56.32-165.12z m691.2 413.44H128.311424l65.28-195.84h725.76l51.2 177.92c3.84 11.52 0 17.92-11.52 17.92zM285.751424 96c57.6 0 103.68-47.36 103.68-104.96 0-57.6-46.08-104.96-103.68-104.96s-103.68 47.36-103.68 104.96c0 58.88 46.08 104.96 103.68 104.96z m0-156.16c28.16 0 51.2 23.04 51.2 52.48s-23.04 52.48-51.2 52.48-51.2-23.04-51.2-52.48c-1.28-29.44 21.76-52.48 51.2-52.48z m544 156.16c57.6 0 103.68-47.36 103.68-104.96 0-57.6-46.08-104.96-103.68-104.96s-103.68 47.36-103.68 104.96c0 58.88 46.08 104.96 103.68 104.96z m0-156.16c28.16 0 51.2 23.04 51.2 52.48s-23.04 52.48-51.2 52.48-51.2-23.04-51.2-52.48c-1.28-29.44 21.76-52.48 51.2-52.48z"  horiz-adv-x="1024" />

    
    <glyph glyph-name="QQ" unicode="&#59069;" d="M512 895.9c-157.7 0-331.9-118.5-331.9-330.3 0 0-42.9-29.6-42.9-136.4 0 0-104.1-97.8-104.1-226.1 0-86.3 22.5-105.9 41.2-105.9 25.2 0 71.8 45.8 71.8 70 0 0 5.3-75.5 62.7-110.6 0 0-91.6-23.3-91.6-81.6 0-66.6 106.7-103 190.7-103 152.3 0.1 159.4 59.9 204.1 59.9s51.9-59.7 203.9-59.7c84 0 190.7 36.4 190.7 103 0 58.3-91.6 81.6-91.6 81.6 57.3 35.1 62.9 110.6 62.9 110.6 0-24.3 46.8-70 71.8-70 18.8 0 41.2 19.8 41.2 105.9 0 128.3-104.1 226.1-104.1 226.1 0 106.8-43.1 136.4-43.1 136.4 0.2 211.7-174 330.1-331.7 330.1z"  horiz-adv-x="1024" />

    
    <glyph glyph-name="mima" unicode="&#58899;" d="M765.78417969 476.28515625h-23.07128907v46.14257813c0 127.38647461-103.32641602 230.71289063-230.71289062 230.71289062S281.28710937 649.81420898 281.28710937 522.42773438v-46.14257813h-23.07128906c-25.46081543 0-46.14257813-20.6817627-46.14257812-46.14257813v-369.14062499c0-25.46081543 20.6817627-46.14257813 46.14257812-46.14257813h507.56835938c25.46081543 0 46.14257813 20.6817627 46.14257812 46.14257812V430.14257813c0 25.46081543-20.6817627 46.14257813-46.14257812 46.14257812z m-438.35449219 46.14257813c0 101.76086426 82.80944825 184.5703125 184.5703125 184.57031249s184.5703125-82.80944825 184.5703125-184.57031249v-46.14257813H327.4296875v46.14257812z m438.35449219-461.42578126H258.21582031V430.14257813h507.56835938v-369.14062501zM512 337.85742187000005c-12.77160645 0-23.07128906-10.29968262-23.07128906-23.07128906v-138.42773437c0-12.77160645 10.29968262-23.07128906 23.07128906-23.07128907s23.07128906 10.29968262 23.07128906 23.07128907V314.78613281c0 12.77160645-10.29968262 23.07128906-23.07128906 23.07128907z"  horiz-adv-x="1024" />

    
    <glyph glyph-name="weibo" unicode="&#58897;" d="M822.208 437.33333333h2.73066667c15.296 0 30.08 12.04266667 32.224 27.14666667 0 0 20.384 74.16533333-29.45066667 119.01866667s-107.37066667 29.12-107.37066666 29.12c-13.78133333-1.81333333-25.16266667-13.65333333-27.02933334-27.14666667 1.856-13.184 13.16266667-22.76266667 27.11466667-22.64533333 0 0 47.50933333 7.38133333 74.09066667-24.18133334s7.616-74.92266667 7.616-74.92266666c-4.26666667-14.57066667 4.71466667-26.38933333 20.07466666-26.38933334zM920.736 673.184c-91.37066667 86.4-214.02666667 73.99466667-214.02666666 73.99466667a41.696 41.696 0 0 1-41.03466667-37.13066667c2.13333333-20.59733333 19.95733333-35.92533333 40.928-35.94666667 0 0 117.80266667 13.58933333 172.62933333-65.06666666s32.288-165.65333333 32.288-165.65333334c-2.944-21.01333333 10.592-38.336 30.848-40.65066666 20.88533333 2.31466667 39.2 19.584 41.13066667 40.59733333-0.032-0.01066667 28.58666667 143.49866667-62.76266667 229.856zM723.072 387.50933333c0 8.29866667 80.24533333 83.04 0 129.55733334S496.096 492.8 500.50133334 500.448C563.62666667 609.06666667 473.39733334 643.296 427.44533334 643.296c-109.65333333 0-396.24533333-240.45866667-396.24533334-392.74666667S222.58133334-25.216000000000008 458.66666667-25.216000000000008 884.26666667 98.24000000000001 884.26666667 250.54933332999997c-0.07466667 128.65066667-161.19466667 128.65066667-161.19466667 136.96zM469.80266667 59.26400000000001C318.98666667 38.05866666999998 185.6 100.35199999999998 171.73333334 198.39999999999998s97.312 194.66666667 248.10666666 215.872 284.256-41.088 298.048-139.11466667-97.28-194.69866667-248.08533333-215.89333333zM389.33333334 356.64c-89.728-17.44-150.67733333-92.16-136.13866667-166.90133333s99.01866667-121.216 188.72533333-103.776S592.52266667 178.13333333000003 578.02666667 252.86400000000003 479.008 374.09066667 389.33333334 356.64z m-8.05333334-196.576c-27.59466667-12.87466667-57.792-6.528-67.43466666 14.176s4.88533333 47.92533333 32.48 60.8 57.824 6.51733333 67.47733333-14.18666667-4.94933333-47.92533333-32.56533333-60.78933333zM458.66666667 226.65599999999995a27.59466667 27.59466667 0 1 0 13.78133333 23.88266667A27.60533333 27.60533333 0 0 0 458.66666667 226.65599999999995z"  horiz-adv-x="1024" />

    
    <glyph glyph-name="qinzi" unicode="&#58893;" d="M315.5968 689.1776l23.296-45.5936c-115.0464-58.7264-178.3296-171.392-178.3296-314.0864 0-199.168 164.48-360.8064 367.5648-360.8064 203.1104 0 367.5904 161.6384 367.5904 360.8064 0 139.6224-81.536 264.9088-207.3344 324.8128l22.016 46.2336c143.3856-68.3008 236.5184-211.4048 236.5184-371.0464 0-227.6352-187.5968-412.0064-418.7904-412.0064-231.168 0-418.7648 184.3712-418.7648 412.0064 0 161.2544 73.3696 291.84 206.2336 359.68zM397.056 344.37120000000004c-44.4416 0-80.64-35.3024-80.64-78.6944 0-11.264 9.5232-20.4032 21.248-20.4032 11.6992 0 21.2224 9.1392 21.2224 20.4032 0 20.8896 17.1264 37.888 38.1952 37.888s38.1952-16.9984 38.1952-37.888c0-11.264 9.4976-20.4032 21.248-20.4032 11.6992 0 21.1968 9.1392 21.1968 20.4032 0 43.392-36.1728 78.6944-80.64 78.6944zM699.52 344.37120000000004c-44.4672 0-80.64-35.3024-80.64-78.6944 0-11.264 9.472-20.4032 21.2224-20.4032 11.6992 0 21.2224 9.1392 21.2224 20.4032 0 20.8896 17.152 37.888 38.1952 37.888 21.0688 0 38.1952-16.9984 38.1952-37.888 0-11.264 9.5232-20.4032 21.248-20.4032 11.6992 0 21.1968 9.1392 21.1968 20.4032 0 43.392-36.1728 78.6944-80.64 78.6944zM715.1616 706.2528c31.5904-51.7632 28.672-116.608-11.136-160.6144-44.288-48.9728-124.672-64.512-231.4752-40.32-105.6512 23.9872-175.744 106.8288-195.2256 203.8784-8.2432 41.088-5.4784 79.5648 8.7808 104.704 19.328 34.048 56.2688 39.424 91.4944 13.44 28.9792-21.376 67.072-33.1776 127.7696-42.6496 10.1632-1.5872 13.696-2.0992 38.016-5.5296 103.5264-14.6176 144.3584-28.0064 171.776-72.9088z m-178.944 22.1952a2175.8208 2175.8208 0 0 0-38.7584 5.632c-68.1984 10.6752-112.896 24.5248-150.2464 52.0448-11.6992 8.6272-13.2096 8.3968-16.5632 2.5088-7.2448-12.7744-9.1392-39.296-3.1232-69.376 15.744-78.4896 71.9104-144.8448 156.3648-163.9936 166.4-37.7344 238.08 41.5232 187.5712 124.288-15.872 25.9584-48.4608 36.6592-135.2192 48.896z"  horiz-adv-x="1024" />

    
    <glyph glyph-name="liuyan" unicode="&#59089;" d="M623.435294 124.988235c-6.023529 0-12.047059-3.011765-18.070588-6.023529l-126.494118-132.517647c-9.035294-9.035294-9.035294-24.094118 0-33.129412 9.035294-9.035294 24.094118-9.035294 33.129412 0l120.470588 123.482353h36.141177l-12.047059 48.188235h-33.129412zM743.905882 820.705882H280.094118C174.682353 820.705882 90.352941 736.376471 90.352941 633.976471v-364.42353C90.352941 167.152941 174.682353 82.823529 277.082353 82.823529H361.411765c12.047059 0 24.094118 12.047059 24.094117 24.094118s-12.047059 24.094118-24.094117 24.094118h18.070588-99.388235c-78.305882 0-141.552941 63.247059-141.552942 141.552941v361.411765C138.541176 712.282353 201.788235 775.529412 280.094118 775.529412h460.8c78.305882 0 141.552941-63.247059 141.552941-141.552941v-364.42353c0-78.305882-63.247059-141.552941-141.552941-141.552941h-87.341177l12.047059-48.188235h72.282353c105.411765 0 189.741176 84.329412 189.741176 186.729411V633.976471c3.011765 102.4-81.317647 186.729412-183.717647 186.729411zM659.576471 513.505882c12.047059 0 24.094118 12.047059 24.094117 24.094118s-12.047059 24.094118-24.094117 24.094118h-361.411765c-12.047059 0-24.094118-12.047059-24.094118-24.094118s12.047059-24.094118 24.094118-24.094118h361.411765zM298.164706 365.929412h427.670588c12.047059 0 24.094118 12.047059 24.094118 24.094117s-12.047059 24.094118-24.094118 24.094118H298.164706c-12.047059 0-24.094118-12.047059-24.094118-24.094118s12.047059-24.094118 24.094118-24.094117zM367.435294 124.988235c6.023529 0 12.047059-3.011765 18.070588-6.023529l126.494118-132.517647c9.035294-9.035294 9.035294-24.094118 0-33.129412-9.035294-9.035294-24.094118-9.035294-33.129412 0l-120.470588 123.482353h-36.141176l12.047058 48.188235h33.129412z"  horiz-adv-x="1024" />

    
    <glyph glyph-name="tuichu" unicode="&#58938;" d="M862.6 610.8c-25.2 35.2-55.4 66.4-89.9 92.7-34.8 26.5-73.3 47.5-114.3 62.3-15.6 5.6-32.8-2.4-38.4-18-5.6-15.6 2.4-32.8 18-38.4 70.9-25.6 131.7-71.8 175.7-133.5 45-63 68.8-137.4 68.8-215 0-99-38.5-192-108.5-262S611-9.6 512-9.6s-192 38.5-262 108.5-108.5 163-108.5 262c0 76.3 23 149.6 66.5 211.9 42.6 60.9 101.6 107.2 170.7 133.9 15.5 6 23.2 23.3 17.2 38.8-6 15.5-23.3 23.2-38.8 17.2-80.3-31-148.8-84.8-198.2-155.5-50.6-72.4-77.4-157.6-77.4-246.3 0-58.1 11.4-114.5 33.8-167.6C137 142 168.1 96 207.6 56.5c39.5-39.5 85.6-70.6 136.8-92.2 53.1-22.5 109.5-33.8 167.6-33.8s114.5 11.4 167.6 33.8c51.3 21.7 97.3 52.7 136.8 92.2C855.9 96 887 142 908.7 193.3c22.5 53.1 33.8 109.5 33.8 167.6 0 90.2-27.6 176.6-79.9 249.9zM512 470.2c15.7 0 28.5 12.9 28.5 28.6V791.4c0 15.7-12.8 28.5-28.5 28.5s-28.5-12.8-28.5-28.5v-292.7c0-15.7 12.8-28.5 28.5-28.5z"  horiz-adv-x="1024" />

    
    <glyph glyph-name="huiyuanzhongxin1" unicode="&#58981;" d="M62.11584 548.41344L261.5296-66.56h596.60288l206.21312 613.90848-44.3392 19.968-192.7168-137.29792L586.19904 701.44h-26.624L313.344 431.104 98.5088 567.1936l-36.37248-18.80064z m772.93568-50.01216l179.2 127.67232 113.41824-51.05664L894.976-117.76H224.33792L0 573.952l101.0688 52.224 203.38688-128.8192L536.94464 752.64h72.25344l225.85344-254.23872zM574.81216 752.64c25.92768 0 46.81728 20.6848 46.81728 46.08s-20.8896 46.08-46.81728 46.08c-25.9072 0-46.7968-20.6848-46.7968-46.08S548.90496 752.64 574.81216 752.64z m0-51.2c-54.0672 0-97.9968 43.49952-97.9968 97.28S520.74496 896 574.81216 896s98.01728-43.49952 98.01728-97.28-43.9296-97.28-98.01728-97.28z m-195.584-343.04h72.54016l121.99936-256.75776 122.01984 256.75776h72.54016l-161.5872-318.34112h-66.7648l-160.768 318.34112z"  horiz-adv-x="1146" />

    
    <glyph glyph-name="gedan" unicode="&#58986;" d="M770.051533 582.88842131H254.83220512c-24.00821911 0-43.59774757-19.58952848-43.59774758-43.59774759v-494.15690252c0-24.00821911 19.58952848-43.59774757 43.59774758-43.59774759h515.21932788c24.00821911 0 43.59774757 19.58952848 43.59774761 43.59774759V539.14338404c0 24.15550879-19.58952848 43.74503728-43.59774761 43.74503727z m15.7599966-537.75465011c0-8.69009158-7.06990501-15.75999659-15.7599966-15.75999659H254.83220512c-8.69009158 0-15.75999659 7.06990501-15.7599966 15.75999659V539.14338404c0 8.69009158 7.06990501 15.75999659 15.7599966 15.75999661h515.21932788c8.69009158 0 15.75999659-7.06990501 15.7599966-15.75999661v-494.00961284zM277.22023765 640.47868925h470.29597313c7.65906378 0 13.99252034 6.1861669 13.99252032 13.99252032s-6.1861669 13.99252034-13.99252032 13.99252037H277.22023765c-7.65906378 0-13.99252034-6.1861669-13.99252034-13.99252037s6.33345658-13.99252034 13.99252034-13.99252032zM321.84901307 727.37960503h381.03842231c6.92261532 0 12.51962347 5.59700814 12.51962346 12.51962348s-5.59700814 12.51962347-12.51962346 12.51962346H321.84901307c-6.92261532 0-12.51962347-5.59700814-12.51962347-12.51962346s5.59700814-12.51962347 12.51962347-12.51962348zM634.10315118 444.28882511l-194.56967758-31.96186226c-3.38766283-0.58915875-5.89158752-3.5349525-5.89158751-6.92261531v-173.94912129c0-13.40336159-9.72111939-24.74466755-22.9771913-26.6594335l-19.00036972-2.79850407c-16.20186565-2.35663501-28.13233036-16.34915535-28.13233037-32.55102099v-3.38766281c0-20.17868721 17.96934191-35.64410444 37.85344978-32.55102102l24.89195723 3.68224219c22.97719129 3.38766283 39.9155054 23.12448098 39.91550538 46.39625166V332.64324176c0 3.5349525 2.50392469 6.48074626 5.89158751 6.92261533l129.61492527 21.20971503c4.27140094 0.73644845 8.24822251-2.65121438 8.24822251-6.92261531v-94.55997958c0-13.40336159-9.72111939-24.74466755-22.97719129-26.65943349l-19.00036975-2.79850406c-16.20186565-2.35663501-28.13233036-16.34915535-28.13233035-32.55102101v-3.3876628c0-20.17868721 17.96934191-35.64410444 37.85344976-32.55102103l24.89195723 3.68224221c22.97719129 3.38766283 39.9155054 23.12448098 39.9155054 46.39625166V437.36620978c-0.1472897 4.41869063-4.12411126 7.65906378-8.3955122 6.92261533z"  horiz-adv-x="1024" />

    
    <glyph glyph-name="guanbi1" unicode="&#58901;" d="M819.43773308 57.510802119999994a25.24793148 25.24793148 0 0 0-17.84677073 7.40116078L193.64596748 672.8569578a25.19544098 25.19544098 0 1 0 35.69354138 35.69354141l607.99748541-607.99748541a25.30042199 25.30042199 0 0 0-17.89926119-43.04221168M211.49273817 57.510802119999994a25.19544098 25.19544098 0 0 0-17.84677069 43.09470218L801.64345286 708.55049921a25.24793148 25.24793148 0 0 0 35.64105091-35.69354141L229.33950886 64.91196290000005a25.19544098 25.19544098 0 0 0-17.8467707-7.40116077"  horiz-adv-x="1024" />

    
    <glyph glyph-name="xiazai" unicode="&#58961;" d="M544 252.8L675.2 384c12.8 12.8 32 12.8 44.8 0 12.8-12.8 12.8-32 0-44.8L563.2 182.4c-25.6-25.6-64-25.6-89.6 0L316.8 339.2c-12.8 12.8-12.8 32 0 44.8 12.8 12.8 32 12.8 44.8 0l121.6-121.6V736c0 19.2 12.8 32 32 32s32-12.8 32-32v-483.2zM832 288c0 19.2 12.8 32 32 32s32-12.8 32-32v-160c0-54.4-41.6-96-96-96H224c-54.4 0-96 41.6-96 96V288c0 19.2 12.8 32 32 32s32-12.8 32-32v-160c0-19.2 12.8-32 32-32h576c19.2 0 32 12.8 32 32V288z"  horiz-adv-x="1024" />

    
    <glyph glyph-name="duoxuan" unicode="&#58887;" d="M993.9968-64.9216H66.56V831.7952h728.7808V896H0v-1024h1059.9424V447.6928h-66.4576v-512.6144h0.512zM331.1616 511.2832l-66.4576-64.2048 265.216-256.2048L1126.4 767.5904l-66.4576 64.2048-530.0224-512-198.7584 191.488z"  horiz-adv-x="1126" />

    
    <glyph glyph-name="zuixiaohua" unicode="&#58894;" d="M98.23 444.997l829.685 1.992 0.154-64-829.685-1.992z"  horiz-adv-x="1024" />

    
    <glyph glyph-name="xiaoxi" unicode="&#58896;" d="M144 41.60000000000002c-13.1 0-23.8 10.6-23.8 23.8V678.1c0 13.1 10.6 23.8 23.8 23.8h735.4c13.1 0 23.8-10.6 23.8-23.8v-601.7c0.1-9.1-3.4-17.8-9.9-24.5-6.7-6.7-15.4-10.3-24.7-10.3H144zM856.8 88V655.5H166.6V88h690.2zM511.7 347.29999999999995c-5.4 0-10.7 1.9-14.8 5.4L132.6 657.6l32.9 32.9 346.3-289.8 347.7 291.2 32.9-32.9-365.8-306.2c-4.2-3.5-9.5-5.5-14.9-5.5z"  horiz-adv-x="1024" />

    
    <glyph glyph-name="plus" unicode="&#58882;" d="M411.39123718 371.55480910000006L15.27542958 371.55480910000006c-6.62888163 0-12.0034331 5.44046288-12.00343309 12.07538235s5.37455147 12.07538235 12.00343308 12.07538234l396.11580761 0c6.62888163 0 12.0034331-5.44046288 12.00343309-12.07538234S418.02011881 371.55480910000006 411.39123718 371.55480910000006zM225.35035115 581.68759178l0-396.11580763c0-6.62888163-5.44046288-12.0034331-12.07538236-12.00343308s-12.07538235 5.37455147-12.07538234 12.00343308l0 396.11580762c0 6.62888163 5.44046288 12.0034331 12.07538234 12.00343308S225.35035115 588.31647387 225.35035115 581.68759178z"  horiz-adv-x="1024" />

    
    <glyph glyph-name="wangyi-copy" unicode="&#59326;" d="M388.6 795.6C339 785.5 327.9 777.4 327.9 747.1c0-25.3 1-25.3 53.6-18.2 70.8 11.1 248.9 7.1 280.2-6.1 35.4-13.2 49.6-39.5 56.7-103.2 8.1-70.8-14.2-98.1-78.9-98.1-24.3-1-96.1-3-161.9-5.1-147.7-5.1-153.8 0-155.8 111.3-1 40.5-4 77.9-8.1 85-11.1 18.2-44.5 13.1-56.7-8.1-11.1-22.3-13.2-118.4-2-173 12.1-63.7 34.4-84 98.1-89 47.5-4 54.6-7.1 43.5-19.2-28.3-34.4-126.5-73.9-186.1-73.9-47.6 0-69.8-19.2-59.7-50.6 10.1-32.4 74.9-28.3 191.2 13.1 38.4 14.2 124.4 82 145.7 116.3 17.2 26.3 19.2 27.3 118.4 26.3 123.4-1 161.9 11.1 182.1 60.7 18.2 43.5 19.2 71.8 4.1 134.5C766.9 755.2 752.8 770.3 666.8 792.6 621.2 804.7 443.2 806.7 388.6 795.6L388.6 795.6zM386.5 645.9c-5.1-7.1-8.1-20.2-6.1-30.3 3-16.2 16.2-18.2 129.5-18.2l126.5 1 3 27.3c4 32.4 11.1 30.3-132.5 31.4C432.1 658 393.6 654 386.5 645.9L386.5 645.9 386.5 645.9zM561.6 429.4c-18.2-7.1-22.3-15.2-18.2-34.4 4-23.3-7.1-33.4-108.3-100.1-70.8-47.6-134.5-80.9-173-92.1-112.3-32.4-133.5-48.6-106.2-80.9 42.5-50.6 230.7 44.5 433 219.5 43.5 37.4 81.9 35.4 101.2-4 10.1-22.3 20.2-28.3 46.5-28.3 72.8 0 95.1-84 42.5-160.9-52.6-75.9-143.7-110.3-207.4-77.9-28.3 15.2-32.4 15.2-37.4 1-8.1-19.2 12.1-68.8 37.4-92.1 38.4-34.4 151.7 1 232.7 73.8 51.6 46.5 68.8 78.9 73.8 141.6 9.1 113.3-77.9 218.5-194.2 231.7-26.3 3-58.7 7.1-72.8 8.1C597 436.5 574.7 434.5 561.6 429.4L561.6 429.4 561.6 429.4zM604 250.29999999999995C467.5 142.10000000000002 352.1 77.39999999999998 239.8 47c-65.8-18.2-69.8-81.9-5.1-81.9 39.5 0 152.8 48.6 214.5 92.1 31.3 22.3 64.7 39.5 73.8 39.5s17.2 6.1 17.2 13.2c0 8.1 26.3 36.4 57.7 63.7 94.1 80.9 97.1 84 83 101.2C664.7 294.9 658.7 292.79999999999995 604 250.29999999999995L604 250.29999999999995z"  horiz-adv-x="1024" />

    
    <glyph glyph-name="weixin-copy" unicode="&#59327;" d="M1054.363018 22.251329000000055V-128L921.50086-51.762838999999985c-31.492401-9.221588-64.751697-14.101952-99.495545-14.101952-180.043268 0-325.911213 132.013844-325.911213 294.667941 0 162.65793 145.867945 294.669219 325.911213 294.669219 179.728983 0 325.5586-132.011289 325.837113-294.669219 0-80.477456-35.801685-153.498943-93.47941-206.551821z m-325.66464 346.199218c-25.734338 0-46.622806-20.924241-46.622806-46.654746 0-25.731783 20.888469-46.656023 46.622806-46.656023 25.762445 0 46.650913 20.924241 46.650914 46.656023 0 25.730505-20.888469 46.654746-46.650914 46.654746z m217.187693 0c-25.766277 0-46.650913-20.924241-46.650913-46.654746 0-25.731783 20.884636-46.656023 46.650913-46.656023 25.734338 0 46.618974 20.924241 46.618973 46.656023 0 25.730505-20.884636 46.654746-46.618973 46.654746z m-123.880756 217.084208c-214.222424 0-387.94166-159.969897-387.411464-356.271675-0.104762-25.905534 2.932051-51.742078 8.943075-76.90917-8.130533-0.319396-16.543412-0.600464-24.742934-0.600463-67.578987-0.249129-134.450193 14.455842-195.668098 43.083903l-129.571106-74.291403V289.49213599999996C34.954648 353.464508-0.001277 434.754507-0.001277 523.684447-0.001277 729.177152 187.53501 896 418.793992 896c207.438463 0 379.880117-134.236837 412.964385-310.531679h-9.753062v0.066434z m-543.069521 92.993929a62.052166 62.052166 0 0 1-53.758103-31.065688c-11.098356-19.1599-11.098356-42.841163 0-62.068775a62.013839 62.013839 0 0 1 53.758103-31.032471c34.251978 0 62.06622 27.782302 62.06622 62.100715 0 34.249423-27.814242 62.06622-62.06622 62.066219z m333.052898-30.997976c-11.095801 19.228889-31.599718 31.102738-53.793876 31.102738-34.286473 0-62.06622-27.819352-62.066219-62.137764 0-34.281363 27.779747-62.062387 62.066219-62.062387 22.194158 0 42.698074 11.804859 53.793876 31.035026 11.063862 19.185452 11.063862 42.867992 0 62.062387z"  horiz-adv-x="1147" />

    


  </font>
</defs>
</svg>
